
    <svg xmlns="http://www.w3.org/2000/svg" width="380" height="170">
      <defs>
        <linearGradient id="bgGradient" x1="0" y1="0" x2="0" y2="1">
          <stop offset="0%" stop-color="#1f2937"/>
          <stop offset="100%" stop-color="#111827"/>
        </linearGradient>
      </defs>

      <rect x="0" y="0" width="380" height="170" fill="url(#bgGradient)" rx="10"/>
      <text x="50%" y="25" text-anchor="middle" fill="#fff" font-size="16" font-weight="600">Top 8 Languages Used</text>

      <g transform="translate(40, 40)"><rect x="0" y="0" width="146.36006924673512" height="20" fill="#3178c6" /><rect x="146.36006924673512" y="0" width="51.154303583564456" height="20" fill="#178600" /><rect x="197.51437283029958" y="0" width="30.041396506437923" height="20" fill="#663399" /><rect x="227.5557693367375" y="0" width="27.986035854012453" height="20" fill="#3572A5" /><rect x="255.54180519074995" y="0" width="27.936787098433225" height="20" fill="#f1e05a" /><rect x="283.47859228918315" y="0" width="12.255019010708448" height="20" fill="#b07219" /><rect x="295.7336112998916" y="0" width="3.0072736623624707" height="20" fill="#c6538c" /><rect x="298.7408849622541" y="0" width="1.2591150377458993" height="20" fill="#e34c26" /></g>
      <g transform="translate(40, 70)"><text x="0" y="20" fill="#3178c6">● TypeScript: 48.8%</text><text x="0" y="40" fill="#178600">● C#: 17.1%</text><text x="0" y="60" fill="#663399">● CSS: 10.0%</text><text x="0" y="80" fill="#3572A5">● Python: 9.3%</text></g>
      <g transform="translate(40, 70)"><text x="160" y="20" fill="#f1e05a">● JavaScript: 9.3%</text><text x="160" y="40" fill="#b07219">● Java: 4.1%</text><text x="160" y="60" fill="#c6538c">● SCSS: 1.0%</text><text x="160" y="80" fill="#e34c26">● HTML: 0.4%</text></g>
    </svg>
  