
    <svg xmlns="http://www.w3.org/2000/svg" width="380" height="170">
      <defs>
        <linearGradient id="bgGradient" x1="0" y1="0" x2="0" y2="1">
          <stop offset="0%" stop-color="#1f2937"/>
          <stop offset="100%" stop-color="#111827"/>
        </linearGradient>
      </defs>

      <rect x="0" y="0" width="380" height="170" fill="url(#bgGradient)" rx="10"/>
      <text x="50%" y="25" text-anchor="middle" fill="#fff" font-size="16" font-weight="600">Top 8 Languages Used</text>

      <g transform="translate(40, 40)"><rect x="0" y="0" width="118.4056010879668" height="20" fill="#3178c6" /><rect x="118.4056010879668" y="0" width="49.27056206225947" height="20" fill="#f1e05a" /><rect x="167.67616315022627" y="0" width="32.149642715387934" height="20" fill="#e34c26" /><rect x="199.8258058656142" y="0" width="25.7939208735587" height="20" fill="#4F5D95" /><rect x="225.6197267391729" y="0" width="22.894583931088803" height="20" fill="#178600" /><rect x="248.5143106702617" y="0" width="20.591364201363444" height="20" fill="#3572A5" /><rect x="269.1056748716251" y="0" width="18.27781724795664" height="20" fill="#663399" /><rect x="287.3834921195818" y="0" width="12.616507880418215" height="20" fill="#f34b7d" /></g>
      <g transform="translate(40, 70)"><text x="0" y="20" fill="#3178c6">● TypeScript: 39.5%</text><text x="0" y="40" fill="#f1e05a">● JavaScript: 16.4%</text><text x="0" y="60" fill="#e34c26">● HTML: 10.7%</text><text x="0" y="80" fill="#4F5D95">● PHP: 8.6%</text></g>
      <g transform="translate(40, 70)"><text x="160" y="20" fill="#178600">● C#: 7.6%</text><text x="160" y="40" fill="#3572A5">● Python: 6.9%</text><text x="160" y="60" fill="#663399">● CSS: 6.1%</text><text x="160" y="80" fill="#f34b7d">● C++: 4.2%</text></g>
    </svg>
  