
<svg xmlns="http://www.w3.org/2000/svg" width="380" height="170">
  <defs>
    <linearGradient id="bgGradient" x1="0" y1="0" x2="0" y2="1">
      <stop offset="0%" stop-color="#1f2937"/>
      <stop offset="100%" stop-color="#111827"/>
    </linearGradient>
  </defs>

  <rect x="0" y="0" width="380" height="170" fill="url(#bgGradient)" rx="10"/>
  <text x="50%" y="25" text-anchor="middle" fill="#fff" font-size="16" font-weight="600">Top 8 Languages Used</text>

  <g transform="translate(40, 40)"><rect x="0" y="0" width="155.18171997592768" height="20" fill="#3178c6" /><rect x="155.18171997592768" y="0" width="33.70164506760065" height="20" fill="#6cc24a" /><rect x="188.88336504352833" y="0" width="32.61652094928736" height="20" fill="#663399" /><rect x="221.49988599281568" y="0" width="30.374878049692178" height="20" fill="#3572a5" /><rect x="251.87476404250785" y="0" width="30.307595121240098" height="20" fill="#f0db4f" /><rect x="282.18235916374795" y="0" width="13.301087366882594" height="20" fill="#b07219" /><rect x="295.48344653063054" y="0" width="3.263969618019863" height="20" fill="#c6538c" /><rect x="298.7474161486504" y="0" width="1.2525838513495835" height="20" fill="#e34c26" /></g>
  <g transform="translate(40, 70)"><text x="0" y="20" fill="#3178c6">● TypeScript: 51.7%</text><text x="0" y="40" fill="#6cc24a">● C#: 11.2%</text><text x="0" y="60" fill="#663399">● CSS: 10.9%</text><text x="0" y="80" fill="#3572a5">● Python: 10.1%</text></g>
  <g transform="translate(40, 70)"><text x="160" y="20" fill="#f0db4f">● JavaScript: 10.1%</text><text x="160" y="40" fill="#b07219">● Java: 4.4%</text><text x="160" y="60" fill="#c6538c">● SCSS: 1.1%</text><text x="160" y="80" fill="#e34c26">● HTML: 0.4%</text></g>
</svg>
