
    <svg xmlns="http://www.w3.org/2000/svg" width="380" height="170">
      <defs>
        <linearGradient id="bgGradient" x1="0" y1="0" x2="0" y2="1">
          <stop offset="0%" stop-color="#1f2937"/>
          <stop offset="100%" stop-color="#111827"/>
        </linearGradient>
      </defs>

      <rect x="0" y="0" width="380" height="170" fill="url(#bgGradient)" rx="10"/>
      <text x="50%" y="25" text-anchor="middle" fill="#fff" font-size="16" font-weight="600">Top 8 Languages Used</text>

      <g transform="translate(40, 40)"><rect x="0" y="0" width="104.35055792410127" height="20" fill="#3178c6" /><rect x="104.35055792410127" y="0" width="50.63742389950348" height="20" fill="#3572A5" /><rect x="154.98798182360474" y="0" width="46.44729108549573" height="20" fill="#f1e05a" /><rect x="201.43527290910046" y="0" width="28.39732792954015" height="20" fill="#e34c26" /><rect x="229.83260083864062" y="0" width="22.732117479867362" height="20" fill="#4F5D95" /><rect x="252.56471831850797" y="0" width="20.17693913714757" height="20" fill="#178600" /><rect x="272.7416574556555" y="0" width="16.139445935751006" height="20" fill="#663399" /><rect x="288.8811033914065" y="0" width="11.118896608593436" height="20" fill="#f34b7d" /></g>
      <g transform="translate(40, 70)"><text x="0" y="20" fill="#3178c6">● TypeScript: 34.8%</text><text x="0" y="40" fill="#3572A5">● Python: 16.9%</text><text x="0" y="60" fill="#f1e05a">● JavaScript: 15.5%</text><text x="0" y="80" fill="#e34c26">● HTML: 9.5%</text></g>
      <g transform="translate(40, 70)"><text x="160" y="20" fill="#4F5D95">● PHP: 7.6%</text><text x="160" y="40" fill="#178600">● C#: 6.7%</text><text x="160" y="60" fill="#663399">● CSS: 5.4%</text><text x="160" y="80" fill="#f34b7d">● C++: 3.7%</text></g>
    </svg>
  