
<svg xmlns="http://www.w3.org/2000/svg" width="380" height="170">
  <defs>
    <linearGradient id="bgGradient" x1="0" y1="0" x2="0" y2="1">
      <stop offset="0%" stop-color="#1f2937"/>
      <stop offset="100%" stop-color="#111827"/>
    </linearGradient>
  </defs>

  <rect x="0" y="0" width="380" height="170" fill="url(#bgGradient)" rx="10"/>
  <text x="50%" y="25" text-anchor="middle" fill="#fff" font-size="16" font-weight="600">Top 8 Languages Used</text>

  <g transform="translate(40, 40)"><rect x="0" y="0" width="154.71155474954412" height="20" fill="#3178c6" /><rect x="154.71155474954412" y="0" width="33.69010133822255" height="20" fill="#6cc24a" /><rect x="188.40165608776667" y="0" width="33.13296531382963" height="20" fill="#663399" /><rect x="221.5346214015963" y="0" width="30.364473828432494" height="20" fill="#3572a5" /><rect x="251.8990952300288" y="0" width="30.297213946212025" height="20" fill="#f0db4f" /><rect x="282.1963091762408" y="0" width="13.296531382962822" height="20" fill="#b07219" /><rect x="295.4928405592036" y="0" width="3.2628516197176083" height="20" fill="#c6538c" /><rect x="298.7556921789212" y="0" width="1.244307821078749" height="20" fill="#e34c26" /></g>
  <g transform="translate(40, 70)"><text x="0" y="20" fill="#3178c6">● TypeScript: 51.6%</text><text x="0" y="40" fill="#6cc24a">● C#: 11.2%</text><text x="0" y="60" fill="#663399">● CSS: 11.0%</text><text x="0" y="80" fill="#3572a5">● Python: 10.1%</text></g>
  <g transform="translate(40, 70)"><text x="160" y="20" fill="#f0db4f">● JavaScript: 10.1%</text><text x="160" y="40" fill="#b07219">● Java: 4.4%</text><text x="160" y="60" fill="#c6538c">● SCSS: 1.1%</text><text x="160" y="80" fill="#e34c26">● HTML: 0.4%</text></g>
</svg>
