
<svg xmlns="http://www.w3.org/2000/svg" width="380" height="170">
  <defs>
    <linearGradient id="bgGradient" x1="0" y1="0" x2="0" y2="1">
      <stop offset="0%" stop-color="#1f2937"/>
      <stop offset="100%" stop-color="#111827"/>
    </linearGradient>
  </defs>

  <rect x="0" y="0" width="380" height="170" fill="url(#bgGradient)" rx="10"/>
  <text x="50%" y="25" text-anchor="middle" fill="#fff" font-size="16" font-weight="600">Top 8 Languages Used</text>

  <g transform="translate(40, 40)"><rect x="0" y="0" width="156.46670607384775" height="20" fill="#3178c6" /><rect x="156.46670607384775" y="0" width="33.37882847140038" height="20" fill="#6cc24a" /><rect x="189.84553454524814" y="0" width="32.29336219354027" height="20" fill="#663399" /><rect x="222.13889673878842" y="0" width="30.08392742332568" height="20" fill="#3572a5" /><rect x="252.2228241621141" y="0" width="30.01728897516237" height="20" fill="#f0db4f" /><rect x="282.24011313727647" y="0" width="13.1736807746843" height="20" fill="#b07219" /><rect x="295.41379391196074" y="0" width="3.2327051631222825" height="20" fill="#c6538c" /><rect x="298.646499075083" y="0" width="1.3535009249169796" height="20" fill="#e34c26" /></g>
  <g transform="translate(40, 70)"><text x="0" y="20" fill="#3178c6">● TypeScript: 52.2%</text><text x="0" y="40" fill="#6cc24a">● C#: 11.1%</text><text x="0" y="60" fill="#663399">● CSS: 10.8%</text><text x="0" y="80" fill="#3572a5">● Python: 10.0%</text></g>
  <g transform="translate(40, 70)"><text x="160" y="20" fill="#f0db4f">● JavaScript: 10.0%</text><text x="160" y="40" fill="#b07219">● Java: 4.4%</text><text x="160" y="60" fill="#c6538c">● SCSS: 1.1%</text><text x="160" y="80" fill="#e34c26">● HTML: 0.5%</text></g>
</svg>
