
    <svg xmlns="http://www.w3.org/2000/svg" width="380" height="170">
      <defs>
        <linearGradient id="bgGradient" x1="0" y1="0" x2="0" y2="1">
          <stop offset="0%" stop-color="#1f2937"/>
          <stop offset="100%" stop-color="#111827"/>
        </linearGradient>
      </defs>

      <rect x="0" y="0" width="380" height="170" fill="url(#bgGradient)" rx="10"/>
      <text x="50%" y="25" text-anchor="middle" fill="#fff" font-size="16" font-weight="600">Top 8 Languages Used</text>

      <g transform="translate(40, 40)"><rect x="0" y="0" width="156.45956218070535" height="20" fill="#3178c6" /><rect x="156.45956218070535" y="0" width="33.37730447444409" height="20" fill="#178600" /><rect x="189.83686665514944" y="0" width="32.29188775636121" height="20" fill="#663399" /><rect x="222.12875441151064" y="0" width="30.082553863619538" height="20" fill="#3572A5" /><rect x="252.2113082751302" y="0" width="30.029615735827637" height="20" fill="#f1e05a" /><rect x="282.2409240109578" y="0" width="13.173079296132679" height="20" fill="#b07219" /><rect x="295.4140033070905" y="0" width="3.232557565586515" height="20" fill="#c6538c" /><rect x="298.646560872677" y="0" width="1.3534391273229842" height="20" fill="#e34c26" /></g>
      <g transform="translate(40, 70)"><text x="0" y="20" fill="#3178c6">● TypeScript: 52.2%</text><text x="0" y="40" fill="#178600">● C#: 11.1%</text><text x="0" y="60" fill="#663399">● CSS: 10.8%</text><text x="0" y="80" fill="#3572A5">● Python: 10.0%</text></g>
      <g transform="translate(40, 70)"><text x="160" y="20" fill="#f1e05a">● JavaScript: 10.0%</text><text x="160" y="40" fill="#b07219">● Java: 4.4%</text><text x="160" y="60" fill="#c6538c">● SCSS: 1.1%</text><text x="160" y="80" fill="#e34c26">● HTML: 0.5%</text></g>
    </svg>
  