
    <svg xmlns="http://www.w3.org/2000/svg" width="380" height="170">
      <defs>
        <linearGradient id="bgGradient" x1="0" y1="0" x2="0" y2="1">
          <stop offset="0%" stop-color="#1f2937"/>
          <stop offset="100%" stop-color="#111827"/>
        </linearGradient>
      </defs>

      <rect x="0" y="0" width="380" height="170" fill="url(#bgGradient)" rx="10"/>
      <text x="50%" y="25" text-anchor="middle" fill="#fff" font-size="16" font-weight="600">Top 8 Languages Used</text>

      <g transform="translate(40, 40)"><rect x="0" y="0" width="156.87214229817056" height="20" fill="#3178c6" /><rect x="156.87214229817056" y="0" width="33.28136766102796" height="20" fill="#178600" /><rect x="190.15350995919852" y="0" width="32.19907077010912" height="20" fill="#663399" /><rect x="222.35258072930765" y="0" width="29.996087194050567" height="20" fill="#3572A5" /><rect x="252.34866792335822" y="0" width="29.943301226996887" height="20" fill="#f1e05a" /><rect x="282.2919691503551" y="0" width="13.135215745721753" height="20" fill="#b07219" /><rect x="295.4271848960769" y="0" width="3.2232661840052366" height="20" fill="#c6538c" /><rect x="298.6504510800821" y="0" width="1.349548919917905" height="20" fill="#e34c26" /></g>
      <g transform="translate(40, 70)"><text x="0" y="20" fill="#3178c6">● TypeScript: 52.3%</text><text x="0" y="40" fill="#178600">● C#: 11.1%</text><text x="0" y="60" fill="#663399">● CSS: 10.7%</text><text x="0" y="80" fill="#3572A5">● Python: 10.0%</text></g>
      <g transform="translate(40, 70)"><text x="160" y="20" fill="#f1e05a">● JavaScript: 10.0%</text><text x="160" y="40" fill="#b07219">● Java: 4.4%</text><text x="160" y="60" fill="#c6538c">● SCSS: 1.1%</text><text x="160" y="80" fill="#e34c26">● HTML: 0.4%</text></g>
    </svg>
  