
<svg xmlns="http://www.w3.org/2000/svg" width="380" height="170">
  <defs>
    <linearGradient id="bgGradient" x1="0" y1="0" x2="0" y2="1">
      <stop offset="0%" stop-color="#1f2937"/>
      <stop offset="100%" stop-color="#111827"/>
    </linearGradient>
  </defs>

  <rect x="0" y="0" width="380" height="170" fill="url(#bgGradient)" rx="10"/>
  <text x="50%" y="25" text-anchor="middle" fill="#fff" font-size="16" font-weight="600">Top 8 Languages Used</text>

  <g transform="translate(40, 40)"><rect x="0" y="0" width="153.9978325866001" height="20" fill="#3178c6" /><rect x="153.9978325866001" y="0" width="33.65375881989193" height="20" fill="#6cc24a" /><rect x="187.65159140649203" y="0" width="32.431322731836715" height="20" fill="#663399" /><rect x="220.08291413832876" y="0" width="31.95317292151649" height="20" fill="#f0db4f" /><rect x="252.03608705984524" y="0" width="30.331718763802954" height="20" fill="#3572a5" /><rect x="282.3678058236482" y="0" width="13.282188017513498" height="20" fill="#b07219" /><rect x="295.6499938411617" y="0" width="3.259331884243701" height="20" fill="#c6538c" /><rect x="298.9093257254054" y="0" width="1.0906742745946054" height="20" fill="#e34c26" /></g>
  <g transform="translate(40, 70)"><text x="0" y="20" fill="#3178c6">● TypeScript: 51.3%</text><text x="0" y="40" fill="#6cc24a">● C#: 11.2%</text><text x="0" y="60" fill="#663399">● CSS: 10.8%</text><text x="0" y="80" fill="#f0db4f">● JavaScript: 10.7%</text></g>
  <g transform="translate(40, 70)"><text x="160" y="20" fill="#3572a5">● Python: 10.1%</text><text x="160" y="40" fill="#b07219">● Java: 4.4%</text><text x="160" y="60" fill="#c6538c">● SCSS: 1.1%</text><text x="160" y="80" fill="#e34c26">● HTML: 0.4%</text></g>
</svg>
