
    <svg xmlns="http://www.w3.org/2000/svg" width="380" height="170">
      <defs>
        <linearGradient id="bgGradient" x1="0" y1="0" x2="0" y2="1">
          <stop offset="0%" stop-color="#1f2937"/>
          <stop offset="100%" stop-color="#111827"/>
        </linearGradient>
      </defs>

      <rect x="0" y="0" width="380" height="170" fill="url(#bgGradient)" rx="10"/>
      <text x="50%" y="25" text-anchor="middle" fill="#fff" font-size="16" font-weight="600">Top 8 Languages Used</text>

      <g transform="translate(40, 40)"><rect x="0" y="0" width="108.30398002419585" height="20" fill="#3178c6" /><rect x="108.30398002419585" y="0" width="45.06710763967528" height="20" fill="#f1e05a" /><rect x="153.37108766387112" y="0" width="44.42875140981241" height="20" fill="#3572A5" /><rect x="197.79983907368353" y="0" width="29.40683743369187" height="20" fill="#e34c26" /><rect x="227.2066765073754" y="0" width="23.593345799242712" height="20" fill="#4F5D95" /><rect x="250.8000223066181" y="0" width="20.941362046654977" height="20" fill="#178600" /><rect x="271.7413843532731" y="0" width="16.718468855522538" height="20" fill="#663399" /><rect x="288.4598532087956" y="0" width="11.540146791204364" height="20" fill="#f34b7d" /></g>
      <g transform="translate(40, 70)"><text x="0" y="20" fill="#3178c6">● TypeScript: 36.1%</text><text x="0" y="40" fill="#f1e05a">● JavaScript: 15.0%</text><text x="0" y="60" fill="#3572A5">● Python: 14.8%</text><text x="0" y="80" fill="#e34c26">● HTML: 9.8%</text></g>
      <g transform="translate(40, 70)"><text x="160" y="20" fill="#4F5D95">● PHP: 7.9%</text><text x="160" y="40" fill="#178600">● C#: 7.0%</text><text x="160" y="60" fill="#663399">● CSS: 5.6%</text><text x="160" y="80" fill="#f34b7d">● C++: 3.8%</text></g>
    </svg>
  